<?xml version="1.0" encoding="utf-8"?>
<!-- Generator: Adobe Illustrator 27.3.1, SVG Export Plug-In . SVG Version: 6.00 Build 0)  -->
<svg version="1.1" id="Layer_1" xmlns="http://www.w3.org/2000/svg" xmlns:xlink="http://www.w3.org/1999/xlink" x="0px" y="0px"
	 viewBox="0 0 534 534" style="enable-background:new 0 0 534 534;" xml:space="preserve">
<style type="text/css">
	.st0{fill:#FFFFFF;}
</style>
<path class="st0" d="M268.7,352c-10.5,1.2-20.2-1.2-29.7-1.4c-12.1-0.4-21-6.5-30.4-11.5c-9.4-5-12.2-15.5-15.5-25.1
	c-5.1-14.8-6.4-29.6-5.2-45.3c2-26.1,15.6-44.2,34.9-60.1c9.1-7.5,17.9-8.8,28.9-6.8c5,1,10.9-0.5,15.9-2.1
	c7.4-2.5,13.9-0.9,20.7,1.5c9.7,3.5,19.7,6.5,29.4,10.1c3.6,1.3,7.4,3,9.9,5.7c9.6,10,19,20.1,27.9,30.7c5.4,6.6,5.9,15.5,4.5,23.1
	c-1.6,9.3-5.7,18.4-9.5,27.2c-2.4,5.5-6.2,10.4-9.3,15.6c-9.2,15.6-24,24-40.3,29.8C290.6,347.1,280.4,351.2,268.7,352L268.7,352z
	 M284.7,206.7c-3.2-0.4-6.5-0.8-9.7-1.1c-10.6-1.1-18.9,4.4-27.6,9.1c-4.3,2.4-9,4.2-13.6,6.2c-0.9,0.4-2,0.1-3,0.2
	c0.3-1,0.2-2.3,0.8-2.9c2.2-2.3,4.8-4.3,6.9-6.7c0.8-0.9,0.8-2.6,1.2-4c-1.3,0.2-2.8-0.1-3.7,0.6c-6.4,4.6-12.9,9.1-18.9,14.3
	c-11.6,10.1-19.2,23.1-22.1,37.9c-2.9,14.8-1.7,29.9,2.6,44.6c3.7,12.6,9.2,23.8,21.6,30c3.8,1.9,8.4,2.4,12,4.7
	c13.1,8.4,27.2,7.4,41.4,5.1c7.2-1.2,14.5-3,21.3-5.6c16.7-6.5,32.9-14.2,43.3-29.9c2.5-3.7,4.9-7.5,7.3-11.2
	c5.8-9,7.7-19.4,9.7-29.5c0.8-3.9,0.8-9-2.5-13c-3.8-4.6-6.4-10.2-10.4-14.6c-6.4-7.1-12.9-14.4-20.6-19.9
	C310.7,213.6,298.7,210,284.7,206.7L284.7,206.7z M152.3,179.7c9.8,12.2,21.3,20.4,34.7,26.5c3.2,1.5,5.6,5.2,7.9,8.2
	c0.6,0.7,0,3-0.8,4c-0.7,0.8-1.6,1.6-3.7,0.1c-9.2-6.2-19.4-11-28.6-17.3c-4.9-3.4-7.8-9.5-12.5-13.2c-8.5-6.6-15.4-15.5-26.6-18.3
	c-0.5-0.1-0.9-0.8-1.4-1.3c0.5-0.4,1-0.8,1.6-1.1c3.6-1.6,7.2-3.1,10.9-4.6c0.3-0.1,1,0.1,1.3,0.4
	C140.6,168.6,145.9,174,152.3,179.7L152.3,179.7z M106.7,278.3c12.8,0.2,24.5,0,36.3,0.1c11.6,0.1,22.9-0.8,33.6-5.8
	c1.4-0.6,3.6,0.5,5.4,0.8c-1.1,2.4-1.5,6.1-3.3,6.9c-12.1,5.5-25.2,6.4-38.1,6.8c-12.4,0.4-25-1.4-37.4-0.6c-4.5,0.3-5.6-1-6.1-3.8
	c-0.6-3.2,1.7-4.5,4.8-4.3C103.2,278.5,104.4,278.2,106.7,278.3z M415.2,352.3c-12.5-3.1-21.7-10.7-31.9-16
	c-6.5-3.4-13-6.9-19.4-10.6c-1.6-0.9-3.3-2.4-4-4c-1.1-2.4,1.5-5.3,4.1-4.4c5.6,1.9,11.4,3.7,16.4,6.6c13.5,7.8,26.6,16.1,40,24.2
	c4.1,2.5,8.6,4.3,12.6,7c1.6,1.1,2.4,3.4,3.5,5.2c-2.1,0.1-4.5,1-6.1,0.2C425.5,358.2,420.9,355.3,415.2,352.3z M215.4,350
	c1.8,1.4,3.3,2.7,3.2,3.6c-2.3,12-9.9,20.8-17.9,29.3c-9.4,10-18.5,20.2-27.8,30.2c-3,3.3-6.2,6.5-9.4,9.5c-0.5,0.5-2.2,0.3-2.7-0.2
	c-0.5-0.5-0.7-2.1-0.3-2.7c1.8-2.2,4.4-3.9,5.8-6.3c7.4-12.4,17.5-22.5,26.3-33.8c5.5-7,11.5-13.5,17-20.5
	C211.6,356.4,212.8,352.9,215.4,350z M413.3,174.5c-6.5,3.7-12.5,7-18.2,10.5c-9.4,5.9-16.3,14.4-24,22.1c-1.7,1.6-3.9,2.8-6,3.9
	c-0.6,0.3-2.5-0.5-2.6-1c-0.2-1,0.1-2.5,0.8-3.3c10.4-11.9,20.7-23.9,34.7-31.7c5.6-3.1,12-4.9,18.1-7.2c5.7-2.2,11.5-4.5,17.3-6.6
	c1.4-0.5,3-0.5,4.6-0.8c-0.8,1.5-1.2,3.5-2.5,4.4C429,169.5,421.8,172.6,413.3,174.5L413.3,174.5z M293.3,409.2
	c1.1,9.1,2.5,17.2,3.6,25.4c0.1,1.1-1.6,2.7-2.9,3.4c-0.4,0.2-2.7-1.3-2.9-2.3c-1.5-6.5-3.4-13-3.7-19.6
	c-0.7-14.4-1.4-28.6-6.7-42.2c-0.6-1.6-0.4-4.1,0.4-5.7c0.8-1.6,2.8-2.6,4.2-3.8c0.8,1.5,1.7,2.9,2.4,4.4c5.3,11.6,4,24.4,6.7,36.4
	C294.5,406.1,293.9,407.2,293.3,409.2L293.3,409.2z M277.8,117.5c1.9-6.9,3.4-12.9,5.1-18.8c0.3-1,1.5-1.8,2.3-2.6
	c0.5,1.2,1.8,2.7,1.5,3.7c-2.3,8.3-3.5,16.5-2.6,25.3c1.1,10.7,0.6,21.6,0.8,32.4c0.3,11.4-5.1,20.6-11.9,29
	c-0.7,0.9-2.9,0.6-4.5,0.8c0.5-1.3,0.8-2.8,1.5-4c6.9-10.8,10.3-22.1,8.4-35.3c-1.3-9.1,0-18.5,0.1-27.8
	C278.5,119.6,277.8,119,277.8,117.5L277.8,117.5z M181.3,326c-2.5,8.4-9.6,12.2-13.7,18.2c-0.6,0.9-4.2,0.3-6.2-0.3
	c-0.6-0.2-1.3-3-0.8-4c5-8.5,12.2-15,20.8-19.9C181.5,321.7,181.5,323.3,181.3,326z M226.7,180.5c0,2.5,0.3,4,0.6,5.6
	c-1.3,0-2.7,0.3-3.8-0.1c-1.1-0.4-2.3-1.5-2.7-2.6c-2.8-7.5-5.5-15-7.9-22.6c-0.4-1.2,1.1-2.9,1.8-4.4c1.2,0.9,2.8,1.5,3.6,2.6
	C223,165,225.2,172.2,226.7,180.5z M254.8,392c-1.7,0.5-3.4,1.1-3.6,0.8c-4.7-7.3-2.8-16-4.4-24c-0.1-0.6,1.8-1.9,2.9-2.2
	c0.6-0.2,2.1,1.1,2.3,1.9c1.3,4.8,2.6,9.7,3.5,14.7C255.9,385.8,255.5,388.7,254.8,392L254.8,392z M328.1,358.9
	c5.7-4.6,9.1,0.3,12.2,2.9c2.4,2,3.1,6.3,4.2,9.7c0.4,1.2-0.2,2.8-0.4,4.2c-1.5-0.5-3.6-0.5-4.5-1.5
	C335.5,369.5,331.8,364.6,328.1,358.9z M318.8,192.9c3.1-7.6,9.8-12.8,10.6-21.2c0.1-0.6,1.4-1.5,2-1.4c0.7,0.1,1.8,1,2,1.7
	c1.6,7.1-3.4,18.4-10.2,22.4C322.4,194.9,320.6,193.8,318.8,192.9z M401.6,267.8c-2.5,7.1-8.6,4.7-12.8,6.2
	c-2.4,0.9-5.8-0.7-8.6-1.4c-0.3-0.1-0.2-3.2,0-3.2C387.4,268.4,393.9,261.2,401.6,267.8L401.6,267.8z M166.4,230.4
	c1.9,0.3,2.9,0.1,3.8,0.4c2.1,0.5,4.2,1.2,6.3,1.8c-1.6,1.9-3,3.9-4.9,5.6c-0.8,0.7-2.4,0.4-3.6,0.6c-4.8,0.6-5.7-0.5-4.5-5.4
	C163.9,232.2,164.8,231.2,166.4,230.4L166.4,230.4z M393.4,169.2l-3.1,1.8l-0.1-3.3C391.5,168,392.8,168.4,393.4,169.2z"/>
<path class="st0" d="M255.5,311.7c-6.8-1.7-13.6-2.4-15.8-8.8c-2.2-6.5-2.9-13.6-4-20.5c-0.1-0.9,1.2-2,1.9-3.1
	c0.5,0.9,1.2,1.7,1.5,2.7c1.9,5.2,3.4,10.5,5.8,15.4c1,2,3.8,3.3,6,4.5c1.5,0.8,3.4,0.7,4.9,1.4c7.1,3.3,13.7,2.6,19.9-2.4
	c1-0.8,2.7-0.8,4-1.2c-0.5,1.5-0.5,3.7-1.5,4.5c-3.3,2.4-6.7,4.7-10.5,6C264.2,311.6,260.3,311.5,255.5,311.7L255.5,311.7z
	 M281.7,259.6c-0.7-2.7-1.1-4.7-1.4-6.7c1.9,0.3,4.4,0,5.7,1.1c1.4,1.2,3.1,4.6,2.4,5.4C287.1,261.1,284.6,263.9,281.7,259.6z
	 M259.4,257.4c-3.2,2-4.4,0.5-5.1-1.6c-1.1-3,0-5.3,3-6.3c0.6-0.2,2.2,0.7,2.5,1.5C260.6,253.1,264.3,255.1,259.4,257.4z
	 M264.1,285.8c-4.4,3.5-6.2,0.6-7-2.3c-0.3-1,2.1-3.6,3.5-3.8C264.8,279.1,265,282.3,264.1,285.8L264.1,285.8z"/>
</svg>
