<?xml version="1.0" encoding="utf-8"?>
<!-- Generator: Adobe Illustrator 27.2.0, SVG Export Plug-In . SVG Version: 6.00 Build 0)  -->
<svg version="1.1" id="Layer_1" xmlns="http://www.w3.org/2000/svg" xmlns:xlink="http://www.w3.org/1999/xlink" x="0px" y="0px"
	 viewBox="0 0 534 534" style="enable-background:new 0 0 534 534;" xml:space="preserve">
<style type="text/css">
	.st0{clip-path:url(#SVGID_00000167364568945803870900000006977957154158997650_);}
	.st1{fill:#FFFFFF;}
</style>
<g>
	<defs>
		<rect id="SVGID_1_" width="534" height="534"/>
	</defs>
	<clipPath id="SVGID_00000101101577951856014880000000426199711700212911_">
		<use xlink:href="#SVGID_1_"  style="overflow:visible;"/>
	</clipPath>
	<g style="clip-path:url(#SVGID_00000101101577951856014880000000426199711700212911_);">
		<path class="st1" d="M68.2,280.5C69.3,292,70,303,73,313.9c2,7.6,5.4,13.8,10.7,19.1c3,3,6.3,6.5,11.3,6.5c0.5,0,1.1,0.6,1.4,1.1
			c3.5,4.6,8.8,4.8,13.8,5.1c6.7,0.4,13.4,0.2,20.1,0c3.6-0.1,6.8-1.4,10.1-3.4c2.4-1.5,5.8-1.4,8.7-1.9c0.3-0.1,1,0,1,0.2
			c2,6.6,9.3,7.6,13.1,12.6c3.8,5,9,9,13.3,13.6c4.6,5,10.4,6.7,16.9,6.9c9.4,0.2,18.3-1.5,26.7-6.1c4.2-2.3,6.6-5.7,8.1-9.4
			c1.6-3.8,4.2-3.1,6.8-3.3c2.2-0.2,4.2-0.4,5.3,2.8c1.6,4.8,6.7,6.4,10.5,8.7c8.1,4.9,16.6,9.2,24.5,14.5c1.3,0.9,2.8,1.3,4.3,1.8
			c1.9,0.5,4.1,0.5,5.8,1.4c2.9,1.4,5.6,1.2,8.6,0.5c3.7-0.8,7.5-1,11.2-1.9c3-0.8,6.4-1.7,8.6-3.7c4.3-4.1,8.6-3.3,13.1-1.5
			c3.1,1.2,6.1,2.9,8.8,4.8c9.8,6.7,20.8,11.3,31.2,16.8c3.2,1.7,6.4,2.2,10,1.8c1.7-0.2,3.6,0.9,5.3,0.7c4.4-0.4,9-0.5,13.2-1.9
			c6.3-2,12.7-4.3,18.5-7.6c4.4-2.5,8.3-6.1,11.8-9.9c5.2-5.5,7.7-12.6,8.5-19.9c0.7-5.6,0.1-11.4,0.1-17c0-1.3-0.3-2.6,0.1-3.8
			c0.3-0.8,1.4-1.3,2.2-2c0.1,0.7,0.4,1.5,0.4,2.1c-0.5,5,2.3,9.7,1,14.8c-1.4,5.6-2.1,11.4-3.5,17c-0.7,2.6-2,5.3-3.7,7.3
			c-6.1,6.8-12.5,13.4-20.8,17.2c-12.6,5.8-25.7,8.5-39.9,6.5c-8.7-1.2-15.7-5.3-22.9-9.3c-5.5-3-11.1-6-16.6-8.9
			c-2.6-1.4-5.3-2.8-8.1-3.5c-2.1-0.6-5-0.8-6.7,0.1c-4.9,2.7-9.8,4.2-15.4,4.3c-2.9,0.1-5.9,1.6-8.8,1.6
			c-11.1-0.2-21.1-3.7-29.9-10.7c-3.1-2.5-6.5-4.7-10.1-6.2c-6.5-2.6-12.4-5.7-16.8-11.3c-0.3-0.5-3.1,0-3.4,0.6
			c-2.6,5.9-7.6,8.2-13.1,10.8c-6.3,3-12.9,3.7-19.4,5.4c-9.3,2.3-16.5-1.1-23.4-6.5c-2.6-2-4.1-5.3-7.7-5.9
			c-3.4-6.6-11.1-8.2-15.6-13.6c-1.7-2.1-4.4-3.5-6.8-5c-0.6-0.4-1.7,0.1-2.5,0.3c-2.8,0.9-5.7,1.6-8.4,2.7
			c-8.6,3.6-17.1,1.6-25.8,0.2c-6.4-1.1-12.4-2.6-18.1-5.6c-11.9-6.2-20.1-15.1-22.2-29c-1.6-10.4-4.1-20.7-6.2-31.1
			c-0.1-0.7-0.6-1.5-1.1-1.9c-1.9-1.5-4-2.8-5.8-4.4c-3-2.5-5.9-5.1-8.9-7.5c-3.9-3.2-6.9-7.9-9.2-12.6c-4.6-9.2-7.1-19.1-2.7-29.1
			c2.5-5.7,5.9-11,12-14.1c2.7-1.3,5.1-3.2,7.4-5.1c5.3-4.2,11.5-6.9,17.4-10.2c6.9-3.9,14.3-6.2,22.2-6.1c3,0,2.5-1.9,1.7-3
			c-4.9-6.4-4.8-13.5-3.2-20.8c0.5-2.1,1.7-3.9,2.5-5.9c1.3-3.2,9.8-12.4,12.2-14.6c4.2-3.8,8.9-6.2,14.5-6.6
			c6.2-0.5,12.3-2.1,18.8-0.7c5.5,1.2,9.7,4.3,14.3,6.9c3.6,2,4.4,2.3,5.9-1.5c2.6-6.8,8.2-10.5,13.7-14.1c4.1-2.7,8.9-4.1,13.2-6.5
			c4.3-2.4,8.3-0.3,11.3,1.7c3.5,2.2,6.1,6.1,8.6,9.7c1.3,1.9,2.9,2.9,4.5,2.1c2.8-1.4,5.9-2,8.4-4.4c8.2-8,18.5-11.6,29.8-10.6
			c7.1,0.6,13.5,4.4,19.2,8.7c1.5,1.1,2.1,3.3,3.3,4.9c1.5,2,2.8,3.3,5.3,0.4c6.9-8,16.3-10.2,26.4-9.7c11.4,0.5,20.4,6.5,26.4,16.9
			c1.1,1.9,2.3,2.8,4.2,0.5c5.7-6.9,13.5-8.6,21.9-8.4c5.5,0.1,10.8,0.3,16.1,2.5c7.2,3,11.4,8.8,16,14.2c3.3,3.8,5.9,8.4,7.5,13.4
			c0.2,0.8,2.3,1.1,3.5,1.3c8.3,1.6,16.7,2.6,24.8,4.8c2.8,0.8,5.4,2.9,8.7,3.6c2.7,0.6,5,3.1,7.5,4.8c0.2,0.1,0.3,0.3,0.4,0.4
			c2.1,3.1,5.1,5.3,7.7,7.9c2.5,2.4,3.8,6,5.7,9c0.6,0.9,1.4,1.6,2.2,2.3c3.6,2.7,5.3,6.5,6.8,10.6c0.3,0.9,0.6,1.9,1.1,2.7
			c2.1,3.3,2.5,6.8-0.1,9.4c-3.4,3.5-6.1,8.1-11.4,9.2c-2.7,0.5-1.5,2.3-1,3c1.4,1.8,3.2,3.4,4.9,5c10.9,10.4,17.6,23.2,21.2,37.6
			c0.9,3.6,0.5,7.9-0.5,11.5c-2.5,8.9-4.2,18.2-11,25.3c-2.4,2.5-4.2,5.5-6.4,8.1c-5.5,6.3-12.3,7.5-20,5c-3.6-1.1-3.5-1.1-3.8,2.5
			c-0.1,1.5-0.6,3.1-1,4.6c-0.6-1.5-1.2-3-1.7-4.6c-2.3-8-0.8-11.9,8.8-8.1c5,2,9.3,0.6,14.1-2.6c6.9-4.5,10.5-10.7,13.6-17.7
			c6.1-13.5,7-27.2-1-40.1c-5.5-9-11.4-17.9-19.4-25c-1.1-0.9-2.3-1.7-3.3-2.7c-1.3-1.1-2.5-2.3-3.8-3.5c1.7-1.4,2.6-3.5,5.4-3.8
			c2.8-0.3,5.9-1.3,8.3-2.9c6-4,6.1-9.3,2.3-15.7c-3.9-6.6-9-12.6-14.4-18.2c-8.6-8.8-19.3-14-31.8-15.3c-5.8-0.6-11.6-1.6-17.3-2.8
			c-1.4-0.3-2.9-2.1-3.7-3.5c-1.2-2.2-1.4-5-2.9-7c-5.9-8.4-11.6-17.1-22.7-19.2c-9.3-1.8-18.1-0.1-26.3,4.4
			c-2.6,1.4-4.9,3.5-7.3,5.4c-2.6,2.1-4.2,1.8-5.7-1.2c-1.6-3.1-2.6-6.8-4.9-9.4c-2.3-2.6-5.6-5.1-8.8-6c-5-1.4-10.5-1.8-15.7-1.9
			c-6-0.1-11.2,2.6-15.7,6.4c-1.8,1.5-3.3,3.3-5,4.9c-3.1,3-5.4,2.8-7.4-0.8c-4-7.3-9.7-12.2-17.9-14.3c-7.9-2-15.2-0.8-22.1,3.3
			c-3.2,1.9-7.1,3.2-7.9,7.7c-0.1,0.7-1.9,1.3-3,1.6c-1,0.3-2.2-0.2-3.1,0.1c-1.5,0.4-3.1,0.9-4.2,1.9c-0.4,0.4,0.4,2.2,0.8,3.3
			c1.6,4.3,4.2,8.2,3.9,13c-0.3,3.9-0.5,7.9-1.3,11.7c-0.8,3.8-7.2,4.8-9.9,4c-0.7-0.2-1.7-1.3-1.6-1.8c0.2-0.9,1-2.4,1.6-2.4
			c2.8,0,4.2-2.2,5.3-3.9c1.2-1.7,2.1-4.2,1.8-6.1c-0.7-4-2.2-7.9-3.5-11.9c-0.4-1.2-0.8-3.2-1.5-3.3c-1.5-0.3-3.2,0.2-4.7,0.7
			c-2.4,0.9-4.6,2.1-6.9,3.3c-0.7,0.4-1.3,1.2-2,1.2c-0.9,0-1.9-0.5-2.8-0.8c0.4-0.7,0.6-1.6,1.2-2c2.9-2.1,5.9-4.2,8.9-6.1
			c3.7-2.2,4.1-2.9,2.2-6.6c-3.4-6.9-9.4-9.9-16.4-7.1c-9,3.5-16.5,9-21.7,17.6c-1.8,3-0.6,5,0.2,7.2c1,2.7,2.6,5.3,4.1,7.8
			c1.2,1.9,1,3.3-0.5,4.9c-1.2,1.2-2.2,2-3.4,0.2c-1.7-2.5-3.8-4.8-5.1-7.4c-2.1-4.4-5.2-7.5-9.6-9.4c-4.1-1.8-8.2-3.7-12.4-5.4
			c-5.4-2.1-10.8-0.1-16.3,0.3c-9.6,0.8-14.7,7-19.9,14.2c-3.2,4.5-4.9,9-4.7,14c0.3,6.2,2.8,11.9,6.6,16.9c1.1,1.4,2.8,2.4,4.4,3.1
			c2.6,1.3,3.6,3.2,3.2,6c-0.3,2.5-1.7,3.3-3.9,1.7c-9.6-6.9-20-4.5-29.9-2c-5.9,1.5-11.5,5.3-16.6,8.9c-5.8,4.1-12.2,7.5-16.9,13.1
			c-4,4.8-5.7,9.9-4.9,16.4c0.8,6.5,2,12.4,5.4,18.2c3.1,5.2,7.2,8.9,11.8,12.3c3.7,2.7,6.8,6.2,11.6,7.3
			C67.7,277.5,67.9,279.1,68.2,280.5L68.2,280.5z"/>
		<path class="st1" d="M343,265.2c-1.9-3.7-3.2-6.9-4.7-10.1c-1.8-3.5,1.9-3.5,3.2-4.3c2.3-1.5,1.5,1.1,2.1,2.2
			c4.2,8.8,10.1,15.8,19.5,19.6c6.1,2.5,10.9,0,15.4-3.4c2.2-1.6,3.9-3.9,5.9-5.7c0.4-0.3,1.3,0,2,0c0,0.5,0.1,1.2-0.1,1.6
			c-2.8,5.6-6.8,10.6-12.9,12c-6.3,1.4-13.2,1.1-18.9-2.5C350.4,272.1,347,268.7,343,265.2z M271.9,233.3c-5.8-0.7-10.7-3-15.1-5.9
			c-5.1-3.3-6.4-8.8-5.9-14.6c0.2-3,2.5-3.8,5.3-3.9c2,0,2,0.8,1.8,2.1c-1,7.6,0.8,9.5,7.1,14.4c5.7,4.4,11.7,4.4,18,4.1
			c2-0.1,4-1.5,6-2.3c1.1-0.4,2.1-1,3.2-1.4c0.6-0.2,1.4-0.2,2.1-0.2c-0.1,0.7,0,1.5-0.4,2c-2.4,3.5-6.4,5.3-10.1,6.2
			C280.4,234.8,276.3,233.6,271.9,233.3L271.9,233.3z M271.9,311.1c-1.2-1.2-1.8-2.1-2.7-2.7c-6.4-3.8-6.1-9.8-5.9-16.1
			c0.1-3.9,2.9-2.2,4.5-2.3c2.4-0.1,1.4,1.1,1.1,2.7c-1.3,7.4,6.8,18.7,15.7,18c5.2-0.4,10.2-0.6,14-4.8c0.3-0.3,0.6-0.6,1-0.7
			c1.6-0.5,3.2-0.9,4.8-1.3c-0.9,1.4-1.5,3.2-2.7,4.3c-6.7,6.1-14.4,8.6-23.3,5.7C276.4,313.2,274.4,312.3,271.9,311.1L271.9,311.1z
			"/>
	</g>
</g>
</svg>
